<mxfile host="app.diagrams.net" modified="2020-08-18T07:26:05.780Z" agent="5.0 (Windows NT 10.0; Win64; x64) AppleWebKit/537.36 (KHTML, like Gecko) Chrome/84.0.4147.125 Safari/537.36 Edg/84.0.522.59" etag="YmvWsgjMx-2Y8rVBijzK" version="13.6.2" type="github">
  <diagram id="UKdxl6bKauNhqJ3v-ynV" name="Page-1">
    <mxGraphModel dx="1038" dy="532" grid="1" gridSize="10" guides="1" tooltips="1" connect="1" arrows="1" fold="1" page="1" pageScale="1" pageWidth="827" pageHeight="1169" math="0" shadow="0">
      <root>
        <mxCell id="0" />
        <mxCell id="1" parent="0" />
        <mxCell id="nDHH_Y6ndfnIwGHfdx3N-2" value="&lt;div style=&quot;font-size: 20px&quot;&gt;&lt;span&gt;&lt;font style=&quot;font-size: 20px&quot; face=&quot;Comic Sans MS&quot;&gt;1. START&lt;/font&gt;&lt;/span&gt;&lt;/div&gt;&lt;div style=&quot;font-size: 20px&quot;&gt;&lt;span&gt;&lt;font style=&quot;font-size: 20px&quot; face=&quot;Comic Sans MS&quot;&gt;2. SET answer = 0&lt;/font&gt;&lt;/span&gt;&lt;/div&gt;&lt;div style=&quot;font-size: 20px&quot;&gt;&lt;span&gt;&lt;font style=&quot;font-size: 20px&quot; face=&quot;Comic Sans MS&quot;&gt;3. INPUT index&lt;/font&gt;&lt;/span&gt;&lt;/div&gt;&lt;div style=&quot;font-size: 20px&quot;&gt;&lt;span&gt;&lt;font style=&quot;font-size: 20px&quot; face=&quot;Comic Sans MS&quot;&gt;4. IF index == 1&lt;/font&gt;&lt;/span&gt;&lt;/div&gt;&lt;blockquote style=&quot;margin: 0 0 0 40px ; border: none ; padding: 0px&quot;&gt;&lt;div style=&quot;font-size: 20px&quot;&gt;&lt;span&gt;&lt;font style=&quot;font-size: 20px&quot; face=&quot;Comic Sans MS&quot;&gt;5. INPUT base, height&lt;/font&gt;&lt;/span&gt;&lt;/div&gt;&lt;div style=&quot;font-size: 20px&quot;&gt;&lt;span&gt;&lt;font style=&quot;font-size: 20px&quot; face=&quot;Comic Sans MS&quot;&gt;6. SET answer = 0.5 * base * height&lt;/font&gt;&lt;/span&gt;&lt;/div&gt;&lt;/blockquote&gt;&lt;div style=&quot;font-size: 20px&quot;&gt;&lt;span&gt;&lt;font style=&quot;font-size: 20px&quot; face=&quot;Comic Sans MS&quot;&gt;7. elsif index == 2&lt;/font&gt;&lt;/span&gt;&lt;/div&gt;&lt;blockquote style=&quot;margin: 0 0 0 40px ; border: none ; padding: 0px&quot;&gt;&lt;div style=&quot;font-size: 20px&quot;&gt;&lt;span&gt;&lt;font style=&quot;font-size: 20px&quot; face=&quot;Comic Sans MS&quot;&gt;8. INPUT width, long&lt;/font&gt;&lt;/span&gt;&lt;/div&gt;&lt;div style=&quot;font-size: 20px&quot;&gt;&lt;span&gt;&lt;font style=&quot;font-size: 20px&quot; face=&quot;Comic Sans MS&quot;&gt;9. SET answer = width * long&lt;/font&gt;&lt;/span&gt;&lt;/div&gt;&lt;/blockquote&gt;&lt;span style=&quot;font-size: 20px&quot;&gt;&lt;font face=&quot;Comic Sans MS&quot;&gt;10. elsif index == 3&lt;br&gt;&lt;blockquote style=&quot;margin: 0 0 0 40px ; border: none ; padding: 0px&quot;&gt;&lt;span style=&quot;font-size: 20px&quot;&gt;11. INPUT r&lt;/span&gt;&lt;/blockquote&gt;&lt;blockquote style=&quot;margin: 0 0 0 40px ; border: none ; padding: 0px&quot;&gt;&lt;span style=&quot;font-size: 20px&quot;&gt;12. SET answer = 3.14 * ( r * r )&lt;/span&gt;&lt;/blockquote&gt;&lt;span style=&quot;font-size: 20px&quot;&gt;13. PRINT answer&lt;br&gt;14. STOP&lt;br&gt;&lt;/span&gt;&lt;/font&gt;&lt;/span&gt;&lt;blockquote style=&quot;margin: 0 0 0 40px ; border: none ; padding: 0px&quot;&gt;&lt;div style=&quot;font-size: 20px&quot;&gt;&lt;br&gt;&lt;/div&gt;&lt;/blockquote&gt;" style="text;html=1;strokeColor=#9673a6;fillColor=#e1d5e7;align=left;verticalAlign=middle;whiteSpace=wrap;rounded=0;" vertex="1" parent="1">
          <mxGeometry x="360" y="160" width="410" height="440" as="geometry" />
        </mxCell>
        <mxCell id="nDHH_Y6ndfnIwGHfdx3N-24" style="edgeStyle=orthogonalEdgeStyle;rounded=0;orthogonalLoop=1;jettySize=auto;html=1;exitX=0.5;exitY=1;exitDx=0;exitDy=0;exitPerimeter=0;entryX=0.5;entryY=0;entryDx=0;entryDy=0;fillColor=#dae8fc;strokeColor=#6c8ebf;sketch=0;" edge="1" parent="1" source="nDHH_Y6ndfnIwGHfdx3N-4" target="nDHH_Y6ndfnIwGHfdx3N-15">
          <mxGeometry relative="1" as="geometry" />
        </mxCell>
        <mxCell id="nDHH_Y6ndfnIwGHfdx3N-4" value="&lt;font style=&quot;font-size: 20px&quot; face=&quot;Comic Sans MS&quot;&gt;START&lt;/font&gt;" style="strokeWidth=2;html=1;shape=mxgraph.flowchart.terminator;whiteSpace=wrap;fillColor=#dae8fc;strokeColor=#6c8ebf;sketch=0;" vertex="1" parent="1">
          <mxGeometry x="80" y="440" width="160" height="80" as="geometry" />
        </mxCell>
        <mxCell id="nDHH_Y6ndfnIwGHfdx3N-26" style="edgeStyle=orthogonalEdgeStyle;rounded=0;orthogonalLoop=1;jettySize=auto;html=1;exitX=0.5;exitY=1;exitDx=0;exitDy=0;entryX=0.5;entryY=0;entryDx=0;entryDy=0;entryPerimeter=0;fillColor=#dae8fc;strokeColor=#6c8ebf;sketch=0;" edge="1" parent="1" source="nDHH_Y6ndfnIwGHfdx3N-6" target="nDHH_Y6ndfnIwGHfdx3N-8">
          <mxGeometry relative="1" as="geometry" />
        </mxCell>
        <mxCell id="nDHH_Y6ndfnIwGHfdx3N-6" value="&lt;font face=&quot;Comic Sans MS&quot;&gt;&lt;span style=&quot;font-size: 20px&quot;&gt;index&lt;/span&gt;&lt;/font&gt;" style="shape=parallelogram;html=1;strokeWidth=2;perimeter=parallelogramPerimeter;whiteSpace=wrap;rounded=1;arcSize=12;size=0.23;fillColor=#dae8fc;strokeColor=#6c8ebf;sketch=0;" vertex="1" parent="1">
          <mxGeometry x="95" y="650" width="130" height="80" as="geometry" />
        </mxCell>
        <mxCell id="nDHH_Y6ndfnIwGHfdx3N-27" style="edgeStyle=orthogonalEdgeStyle;rounded=0;orthogonalLoop=1;jettySize=auto;html=1;exitX=0.5;exitY=1;exitDx=0;exitDy=0;exitPerimeter=0;fillColor=#dae8fc;strokeColor=#6c8ebf;sketch=0;" edge="1" parent="1" source="nDHH_Y6ndfnIwGHfdx3N-8" target="nDHH_Y6ndfnIwGHfdx3N-9">
          <mxGeometry relative="1" as="geometry" />
        </mxCell>
        <mxCell id="nDHH_Y6ndfnIwGHfdx3N-29" style="edgeStyle=orthogonalEdgeStyle;rounded=0;orthogonalLoop=1;jettySize=auto;html=1;exitX=1;exitY=0.5;exitDx=0;exitDy=0;exitPerimeter=0;entryX=0;entryY=0.5;entryDx=0;entryDy=0;fillColor=#dae8fc;strokeColor=#6c8ebf;sketch=0;" edge="1" parent="1" source="nDHH_Y6ndfnIwGHfdx3N-8" target="nDHH_Y6ndfnIwGHfdx3N-13">
          <mxGeometry relative="1" as="geometry" />
        </mxCell>
        <mxCell id="nDHH_Y6ndfnIwGHfdx3N-8" value="&lt;font style=&quot;font-size: 20px&quot;&gt;index == 1&lt;/font&gt;" style="strokeWidth=2;html=1;shape=mxgraph.flowchart.decision;whiteSpace=wrap;fillColor=#dae8fc;strokeColor=#6c8ebf;sketch=0;" vertex="1" parent="1">
          <mxGeometry x="100" y="760" width="110" height="110" as="geometry" />
        </mxCell>
        <mxCell id="nDHH_Y6ndfnIwGHfdx3N-28" style="edgeStyle=orthogonalEdgeStyle;rounded=0;orthogonalLoop=1;jettySize=auto;html=1;exitX=0.5;exitY=1;exitDx=0;exitDy=0;exitPerimeter=0;fillColor=#dae8fc;strokeColor=#6c8ebf;sketch=0;" edge="1" parent="1" source="nDHH_Y6ndfnIwGHfdx3N-9" target="nDHH_Y6ndfnIwGHfdx3N-10">
          <mxGeometry relative="1" as="geometry" />
        </mxCell>
        <mxCell id="nDHH_Y6ndfnIwGHfdx3N-31" style="edgeStyle=orthogonalEdgeStyle;rounded=0;orthogonalLoop=1;jettySize=auto;html=1;exitX=1;exitY=0.5;exitDx=0;exitDy=0;exitPerimeter=0;entryX=0;entryY=0.5;entryDx=0;entryDy=0;fillColor=#dae8fc;strokeColor=#6c8ebf;sketch=0;" edge="1" parent="1" source="nDHH_Y6ndfnIwGHfdx3N-9" target="nDHH_Y6ndfnIwGHfdx3N-17">
          <mxGeometry relative="1" as="geometry" />
        </mxCell>
        <mxCell id="nDHH_Y6ndfnIwGHfdx3N-9" value="&lt;font face=&quot;Comic Sans MS&quot; style=&quot;font-size: 20px&quot;&gt;index ==2&lt;/font&gt;" style="strokeWidth=2;html=1;shape=mxgraph.flowchart.decision;whiteSpace=wrap;fillColor=#dae8fc;strokeColor=#6c8ebf;sketch=0;" vertex="1" parent="1">
          <mxGeometry x="100" y="920" width="110" height="110" as="geometry" />
        </mxCell>
        <mxCell id="nDHH_Y6ndfnIwGHfdx3N-33" style="edgeStyle=orthogonalEdgeStyle;rounded=0;orthogonalLoop=1;jettySize=auto;html=1;exitX=1;exitY=0.5;exitDx=0;exitDy=0;exitPerimeter=0;entryX=0;entryY=0.5;entryDx=0;entryDy=0;fillColor=#dae8fc;strokeColor=#6c8ebf;sketch=0;" edge="1" parent="1" source="nDHH_Y6ndfnIwGHfdx3N-10" target="nDHH_Y6ndfnIwGHfdx3N-19">
          <mxGeometry relative="1" as="geometry" />
        </mxCell>
        <mxCell id="nDHH_Y6ndfnIwGHfdx3N-35" style="edgeStyle=orthogonalEdgeStyle;rounded=0;orthogonalLoop=1;jettySize=auto;html=1;exitX=0.5;exitY=1;exitDx=0;exitDy=0;exitPerimeter=0;entryX=0.5;entryY=0;entryDx=0;entryDy=0;fillColor=#dae8fc;strokeColor=#6c8ebf;sketch=0;" edge="1" parent="1" source="nDHH_Y6ndfnIwGHfdx3N-10" target="nDHH_Y6ndfnIwGHfdx3N-16">
          <mxGeometry relative="1" as="geometry" />
        </mxCell>
        <mxCell id="nDHH_Y6ndfnIwGHfdx3N-10" value="&lt;font style=&quot;font-size: 20px&quot; face=&quot;Comic Sans MS&quot;&gt;index ==3&lt;/font&gt;" style="strokeWidth=2;html=1;shape=mxgraph.flowchart.decision;whiteSpace=wrap;fillColor=#dae8fc;strokeColor=#6c8ebf;sketch=0;" vertex="1" parent="1">
          <mxGeometry x="100" y="1080" width="110" height="110" as="geometry" />
        </mxCell>
        <mxCell id="nDHH_Y6ndfnIwGHfdx3N-30" style="edgeStyle=orthogonalEdgeStyle;rounded=0;orthogonalLoop=1;jettySize=auto;html=1;exitX=1;exitY=0.5;exitDx=0;exitDy=0;entryX=0;entryY=0.5;entryDx=0;entryDy=0;fillColor=#dae8fc;strokeColor=#6c8ebf;" edge="1" parent="1" source="nDHH_Y6ndfnIwGHfdx3N-13" target="nDHH_Y6ndfnIwGHfdx3N-14">
          <mxGeometry relative="1" as="geometry" />
        </mxCell>
        <mxCell id="nDHH_Y6ndfnIwGHfdx3N-13" value="&lt;font face=&quot;Comic Sans MS&quot; style=&quot;font-size: 20px&quot;&gt;base, height&lt;/font&gt;" style="shape=parallelogram;html=1;strokeWidth=2;perimeter=parallelogramPerimeter;whiteSpace=wrap;rounded=1;arcSize=12;size=0.23;fillColor=#dae8fc;strokeColor=#6c8ebf;" vertex="1" parent="1">
          <mxGeometry x="270" y="775" width="130" height="80" as="geometry" />
        </mxCell>
        <mxCell id="nDHH_Y6ndfnIwGHfdx3N-39" style="edgeStyle=orthogonalEdgeStyle;rounded=0;orthogonalLoop=1;jettySize=auto;html=1;exitX=1;exitY=0.5;exitDx=0;exitDy=0;entryX=1;entryY=0.5;entryDx=0;entryDy=0;fillColor=#dae8fc;strokeColor=#6c8ebf;" edge="1" parent="1" source="nDHH_Y6ndfnIwGHfdx3N-14" target="nDHH_Y6ndfnIwGHfdx3N-16">
          <mxGeometry relative="1" as="geometry" />
        </mxCell>
        <mxCell id="nDHH_Y6ndfnIwGHfdx3N-14" value="&lt;font face=&quot;Comic Sans MS&quot; style=&quot;font-size: 20px&quot;&gt;answer = 0.5 * base * height&lt;/font&gt;" style="rounded=0;whiteSpace=wrap;html=1;fillColor=#dae8fc;strokeColor=#6c8ebf;" vertex="1" parent="1">
          <mxGeometry x="490" y="780" width="140" height="70" as="geometry" />
        </mxCell>
        <mxCell id="nDHH_Y6ndfnIwGHfdx3N-25" style="edgeStyle=orthogonalEdgeStyle;rounded=0;orthogonalLoop=1;jettySize=auto;html=1;exitX=0.5;exitY=1;exitDx=0;exitDy=0;entryX=0.5;entryY=0;entryDx=0;entryDy=0;fillColor=#dae8fc;strokeColor=#6c8ebf;sketch=0;" edge="1" parent="1" source="nDHH_Y6ndfnIwGHfdx3N-15" target="nDHH_Y6ndfnIwGHfdx3N-6">
          <mxGeometry relative="1" as="geometry" />
        </mxCell>
        <mxCell id="nDHH_Y6ndfnIwGHfdx3N-15" value="&lt;font face=&quot;Comic Sans MS&quot; style=&quot;font-size: 20px&quot;&gt;answer = 0&lt;/font&gt;" style="rounded=0;whiteSpace=wrap;html=1;fillColor=#dae8fc;strokeColor=#6c8ebf;sketch=0;" vertex="1" parent="1">
          <mxGeometry x="90" y="550" width="140" height="70" as="geometry" />
        </mxCell>
        <mxCell id="nDHH_Y6ndfnIwGHfdx3N-36" style="edgeStyle=orthogonalEdgeStyle;rounded=0;orthogonalLoop=1;jettySize=auto;html=1;exitX=0.5;exitY=1;exitDx=0;exitDy=0;entryX=0.5;entryY=0;entryDx=0;entryDy=0;fillColor=#dae8fc;strokeColor=#6c8ebf;sketch=0;" edge="1" parent="1" source="nDHH_Y6ndfnIwGHfdx3N-16" target="nDHH_Y6ndfnIwGHfdx3N-23">
          <mxGeometry relative="1" as="geometry" />
        </mxCell>
        <mxCell id="nDHH_Y6ndfnIwGHfdx3N-16" value="" style="ellipse;whiteSpace=wrap;html=1;aspect=fixed;fillColor=#dae8fc;strokeColor=#6c8ebf;sketch=0;" vertex="1" parent="1">
          <mxGeometry x="130" y="1230" width="50" height="50" as="geometry" />
        </mxCell>
        <mxCell id="nDHH_Y6ndfnIwGHfdx3N-32" style="edgeStyle=orthogonalEdgeStyle;rounded=0;orthogonalLoop=1;jettySize=auto;html=1;exitX=1;exitY=0.5;exitDx=0;exitDy=0;entryX=0;entryY=0.5;entryDx=0;entryDy=0;fillColor=#dae8fc;strokeColor=#6c8ebf;" edge="1" parent="1" source="nDHH_Y6ndfnIwGHfdx3N-17" target="nDHH_Y6ndfnIwGHfdx3N-18">
          <mxGeometry relative="1" as="geometry" />
        </mxCell>
        <mxCell id="nDHH_Y6ndfnIwGHfdx3N-17" value="&lt;font face=&quot;Comic Sans MS&quot; style=&quot;font-size: 20px&quot;&gt;width, long&lt;/font&gt;" style="shape=parallelogram;html=1;strokeWidth=2;perimeter=parallelogramPerimeter;whiteSpace=wrap;rounded=1;arcSize=12;size=0.23;fillColor=#dae8fc;strokeColor=#6c8ebf;" vertex="1" parent="1">
          <mxGeometry x="270" y="935" width="130" height="80" as="geometry" />
        </mxCell>
        <mxCell id="nDHH_Y6ndfnIwGHfdx3N-40" style="edgeStyle=orthogonalEdgeStyle;rounded=0;orthogonalLoop=1;jettySize=auto;html=1;exitX=1;exitY=0.5;exitDx=0;exitDy=0;fillColor=#dae8fc;strokeColor=#6c8ebf;" edge="1" parent="1" source="nDHH_Y6ndfnIwGHfdx3N-18">
          <mxGeometry relative="1" as="geometry">
            <mxPoint x="650" y="975" as="targetPoint" />
          </mxGeometry>
        </mxCell>
        <mxCell id="nDHH_Y6ndfnIwGHfdx3N-18" value="&lt;font face=&quot;Comic Sans MS&quot; style=&quot;font-size: 20px&quot;&gt;answer = width * long&lt;/font&gt;" style="rounded=0;whiteSpace=wrap;html=1;fillColor=#dae8fc;strokeColor=#6c8ebf;" vertex="1" parent="1">
          <mxGeometry x="490" y="940" width="140" height="70" as="geometry" />
        </mxCell>
        <mxCell id="nDHH_Y6ndfnIwGHfdx3N-34" style="edgeStyle=orthogonalEdgeStyle;rounded=0;orthogonalLoop=1;jettySize=auto;html=1;exitX=1;exitY=0.5;exitDx=0;exitDy=0;entryX=0;entryY=0.5;entryDx=0;entryDy=0;fillColor=#dae8fc;strokeColor=#6c8ebf;" edge="1" parent="1" source="nDHH_Y6ndfnIwGHfdx3N-19" target="nDHH_Y6ndfnIwGHfdx3N-20">
          <mxGeometry relative="1" as="geometry" />
        </mxCell>
        <mxCell id="nDHH_Y6ndfnIwGHfdx3N-19" value="&lt;font style=&quot;font-size: 20px&quot; face=&quot;Comic Sans MS&quot;&gt;r&lt;/font&gt;" style="shape=parallelogram;html=1;strokeWidth=2;perimeter=parallelogramPerimeter;whiteSpace=wrap;rounded=1;arcSize=12;size=0.23;fillColor=#dae8fc;strokeColor=#6c8ebf;" vertex="1" parent="1">
          <mxGeometry x="270" y="1095" width="130" height="80" as="geometry" />
        </mxCell>
        <mxCell id="nDHH_Y6ndfnIwGHfdx3N-41" style="edgeStyle=orthogonalEdgeStyle;rounded=0;orthogonalLoop=1;jettySize=auto;html=1;exitX=1;exitY=0.5;exitDx=0;exitDy=0;fillColor=#dae8fc;strokeColor=#6c8ebf;" edge="1" parent="1" source="nDHH_Y6ndfnIwGHfdx3N-20">
          <mxGeometry relative="1" as="geometry">
            <mxPoint x="650" y="1135" as="targetPoint" />
          </mxGeometry>
        </mxCell>
        <mxCell id="nDHH_Y6ndfnIwGHfdx3N-20" value="&lt;font face=&quot;Comic Sans MS&quot; style=&quot;font-size: 20px&quot;&gt;answer = 3.14 * (r * r)&lt;/font&gt;" style="rounded=0;whiteSpace=wrap;html=1;fillColor=#dae8fc;strokeColor=#6c8ebf;" vertex="1" parent="1">
          <mxGeometry x="490" y="1100" width="140" height="70" as="geometry" />
        </mxCell>
        <mxCell id="nDHH_Y6ndfnIwGHfdx3N-38" style="edgeStyle=orthogonalEdgeStyle;rounded=0;orthogonalLoop=1;jettySize=auto;html=1;exitX=0.5;exitY=1;exitDx=0;exitDy=0;entryX=0.5;entryY=0;entryDx=0;entryDy=0;entryPerimeter=0;fillColor=#dae8fc;strokeColor=#6c8ebf;" edge="1" parent="1" source="nDHH_Y6ndfnIwGHfdx3N-23" target="nDHH_Y6ndfnIwGHfdx3N-37">
          <mxGeometry relative="1" as="geometry" />
        </mxCell>
        <mxCell id="nDHH_Y6ndfnIwGHfdx3N-23" value="&lt;font face=&quot;Comic Sans MS&quot; style=&quot;font-size: 20px&quot;&gt;answer&lt;/font&gt;" style="shape=parallelogram;html=1;strokeWidth=2;perimeter=parallelogramPerimeter;whiteSpace=wrap;rounded=1;arcSize=12;size=0.23;fillColor=#dae8fc;strokeColor=#6c8ebf;" vertex="1" parent="1">
          <mxGeometry x="90" y="1320" width="130" height="80" as="geometry" />
        </mxCell>
        <mxCell id="nDHH_Y6ndfnIwGHfdx3N-37" value="&lt;font face=&quot;Comic Sans MS&quot; style=&quot;font-size: 20px&quot;&gt;STOP&lt;/font&gt;" style="strokeWidth=2;html=1;shape=mxgraph.flowchart.terminator;whiteSpace=wrap;fillColor=#dae8fc;strokeColor=#6c8ebf;" vertex="1" parent="1">
          <mxGeometry x="75" y="1440" width="160" height="80" as="geometry" />
        </mxCell>
        <mxCell id="nDHH_Y6ndfnIwGHfdx3N-43" value="T" style="text;html=1;strokeColor=none;fillColor=none;align=center;verticalAlign=middle;whiteSpace=wrap;rounded=0;" vertex="1" parent="1">
          <mxGeometry x="220" y="775" width="40" height="20" as="geometry" />
        </mxCell>
        <mxCell id="nDHH_Y6ndfnIwGHfdx3N-44" value="T" style="text;html=1;strokeColor=none;fillColor=none;align=center;verticalAlign=middle;whiteSpace=wrap;rounded=0;" vertex="1" parent="1">
          <mxGeometry x="220" y="940" width="40" height="20" as="geometry" />
        </mxCell>
        <mxCell id="nDHH_Y6ndfnIwGHfdx3N-45" value="T" style="text;html=1;strokeColor=none;fillColor=none;align=center;verticalAlign=middle;whiteSpace=wrap;rounded=0;" vertex="1" parent="1">
          <mxGeometry x="220" y="1095" width="40" height="20" as="geometry" />
        </mxCell>
        <mxCell id="nDHH_Y6ndfnIwGHfdx3N-46" value="F" style="text;html=1;strokeColor=none;fillColor=none;align=center;verticalAlign=middle;whiteSpace=wrap;rounded=0;" vertex="1" parent="1">
          <mxGeometry x="90" y="1190" width="40" height="20" as="geometry" />
        </mxCell>
      </root>
    </mxGraphModel>
  </diagram>
</mxfile>
